<?xml version="1.0" encoding="utf-8"?>
<svg viewBox="0 0 250 200" xmlns="http://www.w3.org/2000/svg">
  <defs>
    <style type="text/css">
      path {fill:none;stroke:#000000;stroke-width:1;}
      circle {stroke:#000000;stroke-width:1;}
      text {white-space: pre; font-size: 15px;}
      .leftHand {fill:#e80000;}
      .rightHand {fill:#00e800;}
      .head {fill:#ebebeb;}
    </style>
  </defs>
  <g id="jugglerA" transform="matrix(1, 0, 0, 1, 22, 47)">
    <title>JugglerA</title>
    <g id="juggler-angle" transform="matrix(0, -1, 1, 0, 0, 0)">
      <path d="m 30,18 c 0,-13.6 -5.76,-18.5 -18.7,-18.7"/>
      <circle class="leftHand" r="7" cx="30" cy="23"/>
      <path d="m -30,18   c 0,-13.6  5.76,-18.5  18.7,-18.7"/>
      <circle class="rightHand" r="7" cx="-30" cy="23" />
    </g>
    <circle class="head" r="12" cy="0" cx="0"/>
    <text y="5.25" x="-4.914">A</text>
  </g>
  <g id="jugglerD" transform="matrix(1, 0, 0, 1, 22, 137)">
    <title>JugglerD</title>
    <g id="g-2" transform="matrix(0, -1, 1, 0, -0, 0)" >
      <path d="m 30,18 c 0,-13.6 -5.76,-18.5 -18.7,-18.7"/>
      <circle class="leftHand" r="7" cx="30" cy="23"/>
      <path d="m -30,18   c 0,-13.6  5.76,-18.5  18.7,-18.7"/>
      <circle class="rightHand" r="7" cx="-30" cy="23"/>
    </g>
    <circle class="head" r="12" cy="0" cx="0"/>
    <text y="5.25" x="-4.914">D</text>
  </g>
  <g id="g-3" transform="matrix(1, 0, 0, 1, 230, 47)">
    <title>JugglerB</title>
    <g id="g-4" transform="matrix(0, 1, -1, 0, 0, 0)">
      <path d="m 30,18 c 0,-13.6 -5.76,-18.5 -18.7,-18.7"/>
      <circle class="leftHand" r="7" cx="30" cy="23"/>
      <path d="m -30,18   c 0,-13.6  5.76,-18.5  18.7,-18.7"/>
      <circle class="rightHand" r="7" cx="-30" cy="23"/>
    </g>
    <circle class="head" r="12" cy="0" cx="0"/>
    <text y="5.25" x="-4.914">B</text>
  </g>
  <g id="g-5" transform="matrix(1, 0, 0, 1, 230, 137)">
    <title>JugglerC</title>
    <g id="g-6" transform="matrix(0, 1, -1, 0, 0, 0)">
      <path d="m 30,18 c 0,-13.6 -5.76,-18.5 -18.7,-18.7"/>
      <circle class="leftHand" r="7" cx="30" cy="23"/>
      <path d="m -30,18   c 0,-13.6  5.76,-18.5  18.7,-18.7"/>
      <circle class="rightHand" r="7" cx="-30" cy="23"/>
    </g>
    <circle class="head" r="12" cy="0" cx="0"/>
    <text y="5.25" x="-4.914">C</text>
  </g>
</svg>