<?xml version="1.0" encoding="utf-8"?>
<svg id="club" version="1.1" viewBox="-13 -4.329999923706055 33.5 8.5" xmlns="http://www.w3.org/2000/svg" xmlns:bx="https://boxy-svg.com">
  <path id="clubPath" style="opacity: 1; fill: rgb(235, 235, 235); fill-opacity: 1; stroke: rgb(0, 0, 0); stroke-linejoin: round; stroke-dasharray: none; stroke-dashoffset: 0; stroke-opacity: 1; stroke-width: 0.375;" d="M -12.5 -1.016 C -9.317 0.349 -6.535 0.247 -4.533 -0.776 C -3.852 -1.08 -3.11 -1.357 -2.309 -1.384 C -2.309 -1.384 0.966 -1.527 2.497 -1.484 C 2.507 -0.978 3.5 -0.978 3.5 -1.474 C 3.5 -1.474 3.487 -2.068 3.493 -2.142 C 3.5 -2.612 2.507 -2.612 2.507 -2.111 C 0.968 -2.108 -0.049 -2.197 -2.36 -2.292 C -3.398 -2.305 -3.852 -2.51 -4.552 -2.846 C -6.535 -3.837 -9.317 -3.939 -12.474 -2.621 C -12.488 -2.299 -12.495 -1.522 -12.5 -1.016 Z" transform="matrix(-1, 0, 0, -1, -9, -3.599741)" bx:origin="0.833 0.495"/>
</svg>