<?xml version="1.0" encoding="UTF-8" standalone="no"?>
<svg xmlns="http://www.w3.org/2000/svg" id="club" viewBox="0	0	33.7	8" version="1.1">
  <path
     style="opacity:1;fill:#ebebeb;fill-opacity:1;stroke:#000000;stroke-width:0.625;stroke-linejoin:round;stroke-dasharray:none;stroke-dashoffset:0;stroke-opacity:1"
     d="m 1	5.5 c 6.4151777,2.733042 12.0212567,2.528622 16.0544658,0.47956 1.372656,-0.608457 2.867368,-1.1623 4.481595,-1.215089 0,0 6.599723,-0.288549 9.685055,-0.202059 0.01992,1.013113 2.022095,1.013113 2.021086,0.01984 0,0 -0.02598,-1.188008 -0.01563,-1.337597 0.01673,-0.939924 -1.985478,-0.939926 -1.986618,0.06302 -3.101343,0.006 -5.149167,-0.172191 -9.806693,-0.362504 -2.091798,-0.02717 -3.006085,-0.43602 -4.417362,-1.108772 -3.9945901,-1.984773 -9.6006691,-2.189192 -15.9632448,0.449353 -0.0286,0.644327 -0.04285,2.200813 -0.0526,3.214239 z"
     id="clubPath"
     />
</svg>
