<?xml version="1.0" encoding="UTF-8" standalone="no"?>
<svg
   xmlns="http://www.w3.org/2000/svg"
   id="club"
      viewBox="-4.5 -26 8.5 34"
   version="1.1"
  <g
     id="layer2"
     style="display:inline">
     <path
       style="opacity:1; fill:none; fill-opacity:1; stroke:#000000;
              stroke-width:0.75;
              stroke-miterlimit:4;
              stroke-dasharray:none;
              stroke-dashoffset:0;
              stroke-opacity:1"
       d="M 1.20878445,7.267355625 C 3.93916125,0.723759375 3.73494,-4.994540625 1.687876875,-9.108485625 1.0800132,-10.508619375 0.67155945,-12.550873125 0.618821325,-14.19741375 c 0,0 -0.433115625,-6.214213125 -0.34671,-9.361306875 1.012124925,-0.020323125 1.012124925,-2.062573125 0.0198225,-2.06154375 0,0 -1.18684875,0.026495625 -1.336291875,0.0159375 -0.9390075,-0.0170625 -0.939009375,2.025223125 0.0629625,2.026385625 0.006,3.163425 -0.389295,9.39321 -0.434574375,9.411435 0.045279375,1.615576875 -0.363170625,3.657826875 -1.03526625,5.097354375 -1.9828367625,4.074553125 -2.1870561375,9.792853125 0.448914375,16.282794375 0.64369875,0.029176875 2.19866625,0.043704375 3.211104375,0.053656875 z"/>
  </g>
</svg>


