<?xml version="1.0" encoding="UTF-8" standalone="no"?>

<svg
   xmlns="http://www.w3.org/2000/svg"
   viewBox="0 0 215 90"
   id="diagonalPass"
   version="1.1">
  <defs     id="defs5409">
    <marker
       orient="auto"
       refY="0"
       refX="0"
       id="Arrow2Mend"
       style="overflow:visible"
       >
      <path
         style="fill:#ebebeb;fill-opacity:1;fill-rule:evenodd;stroke:#000000;stroke-width:0.625;stroke-linejoin:round;stroke-opacity:1"
         d="M 8.7185878,4.0337352 -2.2072895,0.01601326 8.7185884,-4.0017078 c -1.7454984,2.3720609 -1.7354408,5.6174519 -6e-7,8.035443 z"
         transform="scale(-0.6)"
         />
    </marker>
  </defs>
  <g>
    <g id="juggler-a" transform="translate(15,38)">
      <g transform="rotate(-90)">
        <path class="leftArm" d="m 30,18 c 0,-13.6 -5.76,-18.5 -18.7,-18.7" style="fill:none;stroke:#000000;stroke-width:1;"></path>
        <circle class="leftHand" r="7"  cx="30" cy="23" style="fill:#e80000;stroke:#000000;stroke-width:1"></circle>
        <path class="rightArm"    d="m -30,18   c 0,-13.6  5.76,-18.5  18.7,-18.7" style="fill:none;stroke:#000000;stroke-width:1;"></path>
        <circle class="rightHand"  r="7"   cx="-30" cy="23" style="fill:#00e800;stroke:#000000;stroke-width:1"></circle>
      </g>
      <circle class="head"      r="12" cy="0" cx="0" style="fill:#ebebeb;stroke:#000000;stroke-width:1"></circle>
      <text class="name" y="4" x="-4" xml:space="preserve">A</text>
      </g>
      

    <g id="juggler-b" transform="translate(200,38)">
      <g transform="rotate(90)">
        <path class="leftArm" d="m 30,18 c 0,-13.6 -5.76,-18.5 -18.7,-18.7" style="fill:none;stroke:#000000;stroke-width:1;"></path>
        <circle class="leftHand" r="7"  cx="30" cy="23" style="fill:#e80000;stroke:#000000;stroke-width:1"></circle>
        <path class="rightArm"    d="m -30,18   c 0,-13.6  5.76,-18.5  18.7,-18.7" style="fill:none;stroke:#000000;stroke-width:1;"></path>
        <circle class="rightHand"  r="7"   cx="-30" cy="23" style="fill:#00e800;stroke:#000000;stroke-width:1"></circle>
      </g>
      <circle class="head"      r="12" cy="0" cx="0" style="fill:#ebebeb;stroke:#000000;stroke-width:1"></circle>
      <text class="name" y="4" x="-4" xml:space="preserve">B</text>
    </g>
  </g>

  <path
      id="3DB-r"
      d="M 45,67 168,9"
      style="stroke:#000000;
             stroke-opacity:1;
             stroke-width:2;
             marker-end:url(#Arrow2Mend);
             " 
    />
  <path
      id="3DB-l"
      d="M 45,9 168,67"
      style="display:none;
            stroke:#000000;
             stroke-opacity:1;
             stroke-width:2;
             marker-end:url(#Arrow2Mend)" 
    />
  <path
      id="3PB-r"
      d="M 45,67 168,67"
      style="display:none;
            stroke:#000000;
             stroke-opacity:1;
             stroke-width:2;
             marker-end:url(#Arrow2Mend)" 
    />
  <path
      id="3PB-l"
      d="M 45,9 168,9"
      style="display:none;
            stroke:#000000;
             stroke-opacity:1;
             stroke-width:2;
             marker-end:url(#Arrow2Mend)" 
    />

</svg>
