<?xml version="1.0" encoding="UTF-8" standalone="no"?>

<svg
   xmlns="http://www.w3.org/2000/svg"
   viewBox="0 0 215 90"
   id="diagonalPass"
   version="1.1">
  <defs>
    <marker orient="auto" refY="0" refX="0" id="Arrow2Mend" style="overflow:visible">
      <path
         style="fill:#ebebeb;fill-opacity:1;fill-rule:evenodd;stroke:#000000;stroke-width:0.625;stroke-linejoin:round;stroke-opacity:1"
         d="M 8.7185878,4.0337352 -2.2072895,0.01601326 8.7185884,-4.0017078 c -1.7454984,2.3720609 -1.7354408,5.6174519 -6e-7,8.035443 z"
         transform="scale(-0.6)"
         />
    </marker>
    <style type="text/css"><![CDATA[
      .toss {stroke:#000000;stroke-opacity:1;stroke-width:2;marker-end:url(#Arrow2Mend)}
      .arm {fill:none;stroke:#000000;stroke-width:1}
      .head {fill:#ebebeb;stroke:#000000;stroke-width:1}
      .leftHand {fill:#e80000;stroke:#000000;stroke-width:1}
      .rightHand {fill:#00e800;stroke:#000000;stroke-width:1}
    ]]></style>
  </defs>
  <path id="AR-3PB" d="M 43,72 168,72" class="toss"/>
  <path id="AR-3DB" d="M 43,72 168,13" class="toss"/>
  <path id="AL-3PB" d="M 43,13 168,13" class="toss"/>
  <path id="AL-3DB" d="M 43,13 168,70" class="toss"/>
  <path id="BR-3PA" d="M 170,5   47,5" class="toss"/>
  <path id="BR-3DA" d="M 171,5  47,64" class="toss"/>
  <path id="BL-3PA" d="M 172,64 47,64" class="toss"/>
  <path id="BL-3DA" d="M 171,64  47,6" class="toss"/>
  <g>
    <g id="juggler-a" transform="translate(15,38)">
      <g id="juggler-a-torso" transform="rotate(-90)">
        <path class="arm leftArm "  d="m 30,18 c 0,-13.6 -5.76,-18.5 -18.7,-18.7"></path>
        <circle class="leftHand" r="7"  cx="30" cy="23" style=""></circle>
        <path class="arm rightArm"    d="m -30,18   c 0,-13.6  5.76,-18.5  18.7,-18.7"></path>
        <circle class="rightHand"  r="7"   cx="-30" cy="23" style=""></circle>
      </g>
      <circle class="head"      r="12" cy="0" cx="0"></circle>
      <text class="name" y="4" x="-4" xml:space="preserve">A</text>
      </g>
    <g id="juggler-b" transform="translate(200,38)">
      <g id="juggler-b-torso" transform="rotate(90)">
        <path class="arm leftArm" d="m 30,18 c 0,-13.6 -5.76,-18.5 -18.7,-18.7"></path>
        <circle class="leftHand" r="7"  cx="30" cy="23"></circle>
        <path class="arm rightArm"    d="m -30,18   c 0,-13.6  5.76,-18.5  18.7,-18.7"></path>
        <circle class="rightHand"  r="7"   cx="-30" cy="23"></circle>
      </g>
      <circle class="head"      r="12" cy="0" cx="0"></circle>
      <text class="name" y="4" x="-4" xml:space="preserve">B</text>
    </g>
  </g>
</svg>
