<?xml version="1.0" encoding="UTF-8" standalone="no"?>
<svg
   xmlns="http://www.w3.org/2000/svg"
   viewBox="0 0 215 90"
   id="RhythmLayout"
>
    <g id="juggler-a" transform="translate(15,38)">
    <g transform="rotate(-90)">
      <path class="leftArm" d="m 30,18 c 0,-13.6 -5.76,-18.5 -18.7,-18.7" style="fill:none;stroke:#000000;stroke-width:1;"></path>
      <circle class="leftHand" r="7"  cx="30" cy="23" style="fill:#e80000;stroke:#000000;stroke-width:1"></circle>
      <path class="rightArm"    d="m -30,18   c 0,-13.6  5.76,-18.5  18.7,-18.7" style="fill:none;stroke:#000000;stroke-width:1;"></path>
      <circle class="rightHand"  r="7"   cx="-30" cy="23" style="fill:#00e800;stroke:#000000;stroke-width:1"></circle>
    </g>
    <circle class="head"      r="12" cy="0" cx="0" style="fill:#ebebeb;stroke:#000000;stroke-width:1"></circle>
    <text class="name" y="4" x="-4" xml:space="preserve">A</text>
    </g>
    

  <g id="juggler-b" transform="translate(200,38)">
    <g transform="rotate(90)">
      <path class="leftArm" d="m 30,18 c 0,-13.6 -5.76,-18.5 -18.7,-18.7" style="fill:none;stroke:#000000;stroke-width:1;"></path>
      <circle class="leftHand" r="7"  cx="30" cy="23" style="fill:#e80000;stroke:#000000;stroke-width:1"></circle>
      <path class="rightArm"    d="m -30,18   c 0,-13.6  5.76,-18.5  18.7,-18.7" style="fill:none;stroke:#000000;stroke-width:1;"></path>
      <circle class="rightHand"  r="7"   cx="-30" cy="23" style="fill:#00e800;stroke:#000000;stroke-width:1"></circle>
    </g>
    <circle class="head"      r="12" cy="0" cx="0" style="fill:#ebebeb;stroke:#000000;stroke-width:1"></circle>
    <text class="name" y="4" x="-4" xml:space="preserve">B</text>
  </g>
</svg>
