<?xml version="1.0" encoding="UTF-8" standalone="no"?>

<svg
   xmlns="http://www.w3.org/2000/svg" viewBox="0 0 215 100" id="rhythmLayout">
  <defs>

    <marker orient="auto" refY="0" refX="0" id="ClubEnd" style="overflow:visible">
      <path id="clubPath" 
        style="opacity: 1; fill: rgb(235, 235, 235); fill-opacity: 1; stroke: rgb(0, 0, 0); stroke-linejoin: round; stroke-dasharray: none; stroke-dashoffset: 0; stroke-opacity: 1; stroke-width: 0.375;" 
        d="M -12.5 -1.016 C -9.317 0.349 -6.535 0.247 -4.533 -0.776 C -3.852 -1.08 -3.11 -1.357 -2.309 -1.384 C -2.309 -1.384 0.966 -1.527 2.497 -1.484 C 2.507 -0.978 3.5 -0.978 3.5 -1.474 C 3.5 -1.474 3.487 -2.068 3.493 -2.142 C 3.5 -2.612 2.507 -2.612 2.507 -2.111 C 0.968 -2.108 -0.049 -2.197 -2.36 -2.292 C -3.398 -2.305 -3.852 -2.51 -4.552 -2.846 C -6.535 -3.837 -9.317 -3.939 -12.474 -2.621 C -12.488 -2.299 -12.495 -1.522 -12.5 -1.016 Z" 
        transform="matrix(-1, 0, 0, -1, -9, -1.75)"
      />
    </marker>
    <style type="text/css"><![CDATA[
      .toss {stroke:#000000;stroke-opacity:1;stroke-width:2;marker-end:url(#ClubEnd); fill:none}
      .arm {fill:none;stroke:#000000;stroke-width:1}
      .head {fill:#ebebeb;stroke:#000000;stroke-width:1}
      .leftHand {fill:#e80000;stroke:#000000;stroke-width:1}
      .rightHand {fill:#00e800;stroke:#000000;stroke-width:1}
    ]]></style>
  </defs>

  <g>
    <g id="juggler-a" transform="translate(15,52)">
      <g id="torso-a" transform="rotate(-90)">
        <path class="arm leftArm "  d="m 30,18 c 0,-13.6 -5.76,-18.5 -18.7,-18.7"></path>
        <circle class="leftHand" r="7"  cx="30" cy="23"></circle>
        <path class="arm rightArm"    d="m -30,18   c 0,-13.6  5.76,-18.5  18.7,-18.7"></path>
        <circle class="rightHand"  r="7"   cx="-30" cy="23"></circle>
      </g>
      <circle class="head"      r="12" cy="0" cx="0"></circle>
      <text class="name" y="4" x="-4" xml:space="preserve">A</text>
      </g>
    <g id="juggler-b" transform="translate(200,52)">
      <g id="torso-b" transform="rotate(90)">
        <path class="arm leftArm" d="m 30,18 c 0,-13.6 -5.76,-18.5 -18.7,-18.7"></path>
        <circle class="leftHand" r="7"  cx="30" cy="23"></circle>
        <path class="arm rightArm"    d="m -30,18   c 0,-13.6  5.76,-18.5  18.7,-18.7"></path>
        <circle class="rightHand"  r="7"   cx="-30" cy="23"></circle>
      </g>
      <circle class="head"      r="12" cy="0" cx="0"></circle>
      <text class="name" y="4" x="-4" xml:space="preserve">B</text>
    </g>
  </g>

  <path id="AR-3PB" d="M  43,87 168,87"   class="toss" display="none" />
  <path id="AR-3DB" d="M  43,87 168,26"   class="toss" display="none"/>
  <path id="AR-3SA" d="M  43,85  43,26"   class="toss" display="none"/>
  <path id="AL-3PB" d="M  43,26 168,26"   class="toss" display="none"/>
  <path id="AL-3DB" d="M  43,26 169,87"   class="toss" display="none"/>
  <path id="AL-3SA" d="M  43,26  43,74"   class="toss" display="none"/>
  <path id="BR-3PA" d="M 172,18  47,18"   class="toss" display="none"/>
  <path id="BR-3DA" d="M 172,18  47,77"   class="toss" display="none"/>
  <path id="BR-3SB" d="M 172,18 172,75"   class="toss" display="none"/>
  <path id="BL-3PA" d="M 172,77  47,77"   class="toss" display="none"/>
  <path id="BL-3DA" d="M 172,77  47,18"   class="toss" display="none"/>
  <path id="BL-3SB" d="M 172,77 172,26"   class="toss" display="none"/>
  <path id="AR-3HA" d="m  43,76 c  1.20245,-1.83893  2.93952,-3.32376  4.94317,-4.22538 2.00366,-0.90161 4.267,-1.21691 6.44079,-0.89723 2.17379,0.31967 4.25054,1.27322 5.9098,2.7135 1.65925,1.44027 2.89531,3.36233 3.51744,5.46958 0.80786,2.73636 0.55768,5.77071 -0.68746,8.3378 -1.24514,2.56709 -3.47318,4.64209 -6.12224,5.70172 -2.64906,1.05962 -5.69352,1.09361 -8.36557,0.0934 -2.67206,-1.00022 -4.94588,-3.02496 -6.24802,-5.56361" class="toss" display="none"/>
  <path id="AL-3HA" d="m  43,25 c  1.20245,1.83893   2.93952,3.323759  4.94317,4.225379 2.00366,0.90161 4.267,1.21691 6.44079,0.89723 2.17379,-0.31967 4.25054,-1.27322 5.9098,-2.713499 1.65925,-1.44027 2.89531,-3.36233 3.51744,-5.46958 0.80786,-2.736361 0.55768,-5.77071 -0.68746,-8.3378 -1.24514,-2.56709 -3.47318,-4.64209 -6.12224,-5.70172 -2.64906,-1.0596201 -5.69352,-1.0936101 -8.36557,-0.0934 -2.67206,1.00022 -4.94588,3.02496 -6.24802,5.56361" class="toss" display="none"/>
  <path id="BR-3HB" d="m 172,25 c -1.20245,1.83893  -2.93952,3.32376  -4.94317,4.22538 -2.00366,0.90161 -4.267,1.21691 -6.44079,0.89723 -2.17379,-0.31967 -4.25054,-1.27322 -5.9098,-2.7135 -1.65925,-1.44027 -2.89531,-3.36233 -3.51744,-5.46958 -0.80786,-2.73636 -0.55768,-5.77071 0.68746,-8.3378 1.24514,-2.56709 3.47318,-4.64209 6.12224,-5.7017203 2.64906,-1.05962 5.69352,-1.09361 8.36557,-0.0934 2.67206,1.0002203 4.94588,3.0249603 6.24802,5.5636103" class="toss" display="none"/>
  <path id="BL-3HB" d="m 172,76 c -1.20245,-1.83893 -2.93952,-3.32376 -4.94317,-4.22538 -2.00366,-0.90161 -4.267,-1.21691 -6.44079,-0.89723 -2.17379,0.31967 -4.25054,1.27322 -5.9098,2.7135 -1.65925,1.44027 -2.89531,3.36233 -3.51744,5.46958 -0.80786,2.73636 -0.55768,5.77071 0.68746,8.3378 1.24514,2.56709 3.47318,4.64209 6.12224,5.70172 2.64906,1.05962 5.69352,1.09361 8.36557,0.0934 2.67206,-1.00022 4.94588,-3.02496 6.24802,-5.56361"      class="toss" display="none"/>
</svg>
